<?xml version="1.0" encoding="UTF-8"?>
<svg id="Layer_2" data-name="Layer 2" xmlns="http://www.w3.org/2000/svg" viewBox="0 0 37.31 49.67">
  <defs>
    <style>
      .cls-1 {
        fill: #000;
        stroke: #000;
        stroke-miterlimit: 10;
        stroke-width: 2px;
      }
    </style>
  </defs>
  <g id="Layer_11" data-name="Layer 11">
    <g>
      <path class="cls-1" d="M31.24,26.18H6.06v-14.02C6.06,6.01,11.07,1,17.22,1h2.86c6.15,0,11.16,5.01,11.16,11.16v14.02ZM8.13,24.11h21.05v-11.95c0-5.01-4.08-9.09-9.09-9.09h-2.86c-5.01,0-9.09,4.08-9.09,9.09v11.95Z"/>
      <path class="cls-1" d="M28.04,19.8H9.27c-4.55,0-8.27,3.72-8.27,8.27v12.34c0,4.55,3.72,8.27,8.27,8.27h18.78c4.55,0,8.27-3.72,8.27-8.27v-12.34c0-4.55-3.72-8.27-8.27-8.27ZM21.61,33.48v7.82c0,1.65-1.35,3-3,3s-3-1.35-3-3v-7.82c-.79-.78-1.28-1.85-1.28-3.04,0-2.36,1.91-4.28,4.28-4.28s4.28,1.91,4.28,4.28c0,1.19-.49,2.27-1.28,3.04Z"/>
    </g>
  </g>
</svg>